<svg width="22" height="17" viewBox="0 0 22 17" fill="none" xmlns="http://www.w3.org/2000/svg">
<path fill-rule="evenodd" clip-rule="evenodd" d="M2.29289 2.79289C2.48043 2.60536 2.73478 2.5 3 2.5H19C19.2652 2.5 19.5196 2.60536 19.7071 2.79289C19.8946 2.98043 20 3.23478 20 3.5V7.5C20 8.05228 20.4477 8.5 21 8.5C21.5523 8.5 22 8.05228 22 7.5V3.5C22 2.70435 21.6839 1.94129 21.1213 1.37868C20.5587 0.81607 19.7957 0.5 19 0.5H3C2.20435 0.5 1.44129 0.81607 0.87868 1.37868C0.31607 1.94129 0 2.70435 0 3.5V13.5C0 14.2956 0.31607 15.0587 0.87868 15.6213C1.44129 16.1839 2.20435 16.5 3 16.5H9.5C10.0523 16.5 10.5 16.0523 10.5 15.5C10.5 14.9477 10.0523 14.5 9.5 14.5H3C2.73478 14.5 2.48043 14.3946 2.29289 14.2071C2.10536 14.0196 2 13.7652 2 13.5V3.5C2 3.23478 2.10536 2.98043 2.29289 2.79289ZM14 9.5C12.8954 9.5 12 10.3954 12 11.5V14.5C12 15.6046 12.8954 16.5 14 16.5H20C21.1046 16.5 22 15.6046 22 14.5V11.5C22 10.3954 21.1046 9.5 20 9.5H14Z" fill="black"/>
</svg>
