<svg width="24" height="22" viewBox="0 0 24 22" fill="none" xmlns="http://www.w3.org/2000/svg">
<path d="M6.29809 17.51L5.31809 17.258V11.896H10.5961V13.24H6.10209L6.64809 12.792V17.006L5.90609 16.474C6.17676 16.054 6.50343 15.7367 6.88609 15.522C7.26876 15.3073 7.74476 15.2 8.31409 15.2C8.83676 15.2 9.31743 15.3307 9.75609 15.592C10.2041 15.8533 10.5634 16.222 10.8341 16.698C11.1048 17.174 11.2401 17.734 11.2401 18.378C11.2401 19.078 11.0954 19.666 10.8061 20.142C10.5168 20.618 10.1341 20.9773 9.65809 21.22C9.19143 21.4533 8.67809 21.57 8.11809 21.57C7.37143 21.57 6.74143 21.43 6.22809 21.15C5.72409 20.87 5.31343 20.492 4.99609 20.016L6.01809 19.218C6.27009 19.5633 6.56409 19.8153 6.90009 19.974C7.24543 20.1327 7.58609 20.212 7.92209 20.212C8.52876 20.212 8.99543 20.044 9.32209 19.708C9.64876 19.372 9.81209 18.9287 9.81209 18.378C9.81209 17.846 9.63476 17.4213 9.28009 17.104C8.93476 16.7867 8.51476 16.628 8.02009 16.628C7.69343 16.628 7.38543 16.6933 7.09609 16.824C6.80676 16.9547 6.54076 17.1833 6.29809 17.51Z" fill="white"/>
<path d="M1.80827 13.366L2.32627 13.576C2.26093 13.7533 2.1396 13.926 1.96227 14.094C1.78493 14.262 1.54227 14.402 1.23427 14.514C0.926266 14.626 0.538932 14.682 0.0722656 14.682V13.338C0.473599 13.338 0.818932 13.282 1.10827 13.17C1.3976 13.0487 1.6356 12.8807 1.82227 12.666C2.01827 12.442 2.16293 12.1853 2.25627 11.896H3.20827V21.43H1.80827V13.366Z" fill="white"/>
<path d="M2.99112 6.23224C4.84796 3.34358 8.09013 1.43005 11.7792 1.43005C17.5448 1.43005 22.2188 6.10399 22.2188 11.8696C22.2188 15.6469 20.2127 18.9556 17.2078 20.7884M2.99112 6.23224V1.43005M2.99112 6.23224H7.18583" stroke="white" stroke-width="2" stroke-linecap="round" stroke-linejoin="round"/>
</svg>
