<svg width="22" height="23" viewBox="0 0 22 23" fill="none" xmlns="http://www.w3.org/2000/svg">
<path d="M10.084 4.81011C10.0838 4.68243 10.0458 4.55767 9.97477 4.45156C9.90375 4.34546 9.80289 4.26277 9.68492 4.21394C9.56695 4.1651 9.43715 4.1523 9.31191 4.17716C9.18668 4.20202 9.07161 4.26342 8.98123 4.35361L5.87923 7.45469C5.75952 7.57512 5.6171 7.6706 5.46022 7.73558C5.30334 7.80057 5.13512 7.83378 4.96532 7.83328H2.75065C2.50754 7.83328 2.27438 7.92986 2.10247 8.10176C1.93056 8.27367 1.83398 8.50683 1.83398 8.74994V14.2499C1.83398 14.4931 1.93056 14.7262 2.10247 14.8981C2.27438 15.07 2.50754 15.1666 2.75065 15.1666H4.96532C5.13512 15.1661 5.30334 15.1993 5.46022 15.2643C5.6171 15.3293 5.75952 15.4248 5.87923 15.5452L8.98032 18.6472C9.0707 18.7378 9.18593 18.7995 9.31141 18.8245C9.43689 18.8495 9.56697 18.8367 9.68517 18.7877C9.80336 18.7387 9.90436 18.6557 9.97536 18.5493C10.0464 18.4428 10.0842 18.3177 10.084 18.1898V4.81011Z" stroke="white" stroke-width="2" stroke-linecap="round" stroke-linejoin="round"/>
<path d="M14.666 8.75C15.261 9.54336 15.5827 10.5083 15.5827 11.5C15.5827 12.4917 15.261 13.4566 14.666 14.25" stroke="white" stroke-width="2" stroke-linecap="round" stroke-linejoin="round"/>
<path d="M17.75 17.3337C18.5161 16.5676 19.1238 15.6582 19.5384 14.6572C19.953 13.6563 20.1664 12.5835 20.1664 11.5C20.1664 10.4166 19.953 9.34383 19.5384 8.34289C19.1238 7.34194 18.5161 6.43247 17.75 5.66638" stroke="white" stroke-width="2" stroke-linecap="round" stroke-linejoin="round"/>
</svg>
