<svg width="24" height="22" viewBox="0 0 24 22" fill="none" xmlns="http://www.w3.org/2000/svg">
<path d="M19.0559 17.51L18.0759 17.258V11.896H23.3539V13.24H18.8599L19.4059 12.792V17.006L18.6639 16.474C18.9346 16.054 19.2612 15.7367 19.6439 15.522C20.0266 15.3073 20.5026 15.2 21.0719 15.2C21.5946 15.2 22.0752 15.3307 22.5139 15.592C22.9619 15.8533 23.3212 16.222 23.5919 16.698C23.8626 17.174 23.9979 17.734 23.9979 18.378C23.9979 19.078 23.8532 19.666 23.5639 20.142C23.2746 20.618 22.8919 20.9773 22.4159 21.22C21.9492 21.4533 21.4359 21.57 20.8759 21.57C20.1292 21.57 19.4992 21.43 18.9859 21.15C18.4819 20.87 18.0712 20.492 17.7539 20.016L18.7759 19.218C19.0279 19.5633 19.3219 19.8153 19.6579 19.974C20.0032 20.1327 20.3439 20.212 20.6799 20.212C21.2866 20.212 21.7532 20.044 22.0799 19.708C22.4066 19.372 22.5699 18.9287 22.5699 18.378C22.5699 17.846 22.3926 17.4213 22.0379 17.104C21.6926 16.7867 21.2726 16.628 20.7779 16.628C20.4512 16.628 20.1432 16.6933 19.8539 16.824C19.5646 16.9547 19.2986 17.1833 19.0559 17.51Z" fill="black"/>
<path d="M14.568 13.366L15.086 13.576C15.0207 13.7533 14.8994 13.926 14.722 14.094C14.5447 14.262 14.302 14.402 13.994 14.514C13.686 14.626 13.2987 14.682 12.832 14.682V13.338C13.2334 13.338 13.5787 13.282 13.868 13.17C14.1574 13.0487 14.3954 12.8807 14.582 12.666C14.778 12.442 14.9227 12.1853 15.016 11.896H15.968V21.43H14.568V13.366Z" fill="black"/>
<path d="M21.0811 6.23224C19.2243 3.34358 15.9821 1.43005 12.293 1.43005C6.52745 1.43005 1.85352 6.10399 1.85352 11.8696C1.85352 15.6469 3.85961 18.9556 6.86449 20.7884M21.0811 6.23224V1.43005M21.0811 6.23224H16.8864" stroke="black" stroke-width="2" stroke-linecap="round" stroke-linejoin="round"/>
</svg>
