<svg width="18" height="17" viewBox="0 0 18 17" fill="none" xmlns="http://www.w3.org/2000/svg">
<path d="M3.72027 2.916L4.84827 3.66C4.73627 3.964 4.50427 4.26 4.15227 4.548C3.80027 4.82 3.33627 5.052 2.76027 5.244C2.20027 5.42 1.53627 5.508 0.768266 5.508V2.532C1.39227 2.532 1.96027 2.436 2.47227 2.244C2.98427 2.052 3.41627 1.78 3.76827 1.428C4.13627 1.06 4.39227 0.635999 4.53627 0.155999H6.88827V16.5H3.72027V2.916ZM15.0693 16.5L12.9993 13.26H13.6653L11.6133 16.5H8.91327L12.2613 11.658L12.2793 12.54L8.94927 7.698H11.6493L13.6833 10.92H12.9813L15.0153 7.698H17.7153L14.3853 12.54L14.4213 11.658L17.7513 16.5H15.0693Z" fill="white"/>
</svg>
