<svg width="20" height="21" viewBox="0 0 20 21" fill="none" xmlns="http://www.w3.org/2000/svg">
<path fill-rule="evenodd" clip-rule="evenodd" d="M4.29289 5.79289C3.90237 6.18342 3.90237 6.81658 4.29289 7.20711C4.68342 7.59763 5.31658 7.59763 5.70711 7.20711L9 3.91421L9 13.5C9 14.0523 9.44771 14.5 10 14.5C10.5523 14.5 11 14.0523 11 13.5L11 3.91421L14.2929 7.20711C14.6834 7.59763 15.3166 7.59763 15.7071 7.20711C16.0976 6.81658 16.0976 6.18342 15.7071 5.79289L10.7071 0.792893C10.5196 0.605357 10.2652 0.5 10 0.5C9.73478 0.5 9.48043 0.605357 9.29289 0.792893L4.29289 5.79289ZM2.29289 18.2071C2.10536 18.0196 2 17.7652 2 17.5L2 13.5C2 12.9477 1.55228 12.5 1 12.5C0.447715 12.5 0 12.9477 0 13.5V17.5C0 18.2956 0.31607 19.0587 0.87868 19.6213C1.44129 20.1839 2.20435 20.5 3 20.5H17C17.7957 20.5 18.5587 20.1839 19.1213 19.6213C19.6839 19.0587 20 18.2956 20 17.5V13.5C20 12.9477 19.5523 12.5 19 12.5C18.4477 12.5 18 12.9477 18 13.5V17.5C18 17.7652 17.8946 18.0196 17.7071 18.2071C17.5196 18.3946 17.2652 18.5 17 18.5H3C2.73478 18.5 2.48043 18.3946 2.29289 18.2071Z" fill="white"/>
</svg>
