<svg width="41" height="41" viewBox="0 0 41 41" fill="none" xmlns="http://www.w3.org/2000/svg">
<path d="M40.5 20.7939C40.4999 26.0704 38.4145 30.8391 35.0244 34.3955L34.6924 34.7363C31.1553 38.2774 26.2106 40.501 20.7686 40.501C15.4977 40.5009 10.7346 38.4151 7.22558 35.0645L6.89062 34.7363C3.30522 31.1468 1.08509 26.2408 1.08496 20.7939C1.08496 15.5171 3.1662 10.7496 6.55762 7.19531L6.89062 6.85547L6.89062 6.85449C10.4281 3.31106 15.3703 1.08605 20.7686 1.08594C25.9994 1.08594 30.8434 3.17496 34.3564 6.52637L34.6924 6.85449L34.6924 6.85547C38.2779 10.4432 40.5 15.3471 40.5 20.7939ZM38.1484 20.7939C38.1484 16.0055 36.2361 11.6398 33.0732 8.52246C29.9147 5.35824 25.6018 3.43945 20.7686 3.43945C15.9341 3.43956 11.6672 5.35951 8.50781 8.52246L8.50879 8.52246C5.34779 11.6397 3.43262 16.005 3.43262 20.7939C3.43274 25.5836 5.35027 29.9512 8.50976 33.0703L8.51074 33.0693C11.6708 36.234 15.983 38.1493 20.7686 38.1494C25.4042 38.1494 29.6426 36.3512 32.7734 33.3613L33.0732 33.0684C36.2353 29.9496 38.1483 25.6299 38.1484 20.7939ZM28.5479 23.0312C28.5478 23.3808 28.4747 23.6251 28.2568 23.8135L28.2275 23.8389L28.2021 23.8691C28.0325 24.0702 27.7153 24.207 27.4229 24.207C27.1869 24.207 26.9319 24.1142 26.71 23.9268L26.6172 23.8408L26.6172 23.8398L21.4551 18.627L21.1016 18.2695L20.7461 18.626L15.5371 23.8379L15.5361 23.8398C15.3031 24.0745 14.9632 24.2069 14.6787 24.207C14.4036 24.207 14.1257 24.0825 13.9434 23.8682L13.9062 23.8252L13.8613 23.791C13.7528 23.7098 13.6989 23.6244 13.6797 23.5332L13.6572 23.4248L13.5908 23.3369C13.5831 23.3265 13.5712 23.304 13.5625 23.252C13.5529 23.1941 13.5518 23.1295 13.5518 23.0312L13.5518 22.8818C13.5532 22.8436 13.5558 22.8136 13.5605 22.7852C13.568 22.74 13.5817 22.694 13.6182 22.6328L13.6553 22.5703L13.6729 22.5L13.6924 22.4521C13.7217 22.3938 13.7859 22.3026 13.916 22.1709L13.916 22.1699L20.2236 15.8105C20.4637 15.6081 20.8137 15.4736 21.0977 15.4736C21.3745 15.4737 21.6659 15.6024 21.8584 15.793L28.2305 22.1729C28.4797 22.4225 28.5479 22.6923 28.5479 23.0312Z" fill="white" stroke="black"/>
</svg>
