<svg width="68" height="69" viewBox="0 0 68 69" fill="none" xmlns="http://www.w3.org/2000/svg">
<g clip-path="url(#clip0_1327_14029)">
<path d="M62.3611 34.5C62.3611 26.6679 59.2326 19.5371 54.0676 14.4486C48.906 9.27763 41.8625 6.14203 33.9605 6.14202C26.0585 6.14202 19.0905 9.27763 13.9256 14.4486C8.764 19.5371 5.63203 26.6679 5.63203 34.5C5.63203 42.3321 8.76743 49.4663 13.9256 54.5582C19.0905 59.7327 26.1375 62.8614 33.9605 62.8614C41.7835 62.8614 48.9094 59.7292 54.0676 54.5582C59.2326 49.4663 62.3611 42.4112 62.3611 34.5ZM20.9725 38.2614C20.9725 37.8694 20.9725 37.5565 21.206 37.1646C21.285 36.8517 21.5185 36.5423 21.831 36.226L32.4769 25.492C33.0195 25.0244 33.8094 24.7081 34.5134 24.7081C35.2174 24.7081 35.918 25.0244 36.3885 25.492L47.1099 36.226C47.7384 36.8551 47.8895 37.5565 47.8895 38.2648C47.8895 38.973 47.7384 39.6744 47.1099 40.2177C46.6429 40.7712 45.8599 41.0841 45.1559 41.0841C44.4519 41.0841 43.7479 40.7712 43.2019 40.2177L34.5168 31.4469L25.7528 40.2177C25.2034 40.7712 24.4169 41.0841 23.7129 41.0841C23.0089 41.0841 22.3049 40.7712 21.8345 40.2177C21.5219 39.9839 21.2918 39.6744 21.2094 39.2825C20.9759 38.9696 20.9759 38.5777 20.9759 38.2648L20.9725 38.2614ZM-1.48619e-06 34.5C-1.0753e-06 25.1001 3.82909 16.6387 10.014 10.4535C16.1166 4.34043 24.6436 0.499998 33.9605 0.499999C43.2774 0.499999 51.88 4.34043 57.9825 10.4535C64.164 16.6387 68 25.1001 68 34.5C68 43.8999 64.164 52.3647 57.9825 58.5534C51.88 64.663 43.3495 68.5 33.9605 68.5C24.5715 68.5 16.1166 64.663 10.014 58.5534C3.83252 52.3647 -1.89707e-06 43.8999 -1.48619e-06 34.5Z" fill="white"/>
</g>
<defs>
<clipPath id="clip0_1327_14029">
<rect width="68" height="68" fill="white" transform="translate(68 0.5) rotate(90)"/>
</clipPath>
</defs>
</svg>
