<svg width="80" height="69" viewBox="0 0 80 69" fill="none" xmlns="http://www.w3.org/2000/svg">
<path d="M39.8281 46C38.2634 46 36.9922 44.7295 36.9922 43.1641V20.4766C36.9922 18.9111 38.2634 17.6406 39.8281 17.6406C41.3929 17.6406 42.6641 18.9111 42.6641 20.4766V43.1641C42.6641 44.7295 41.3929 46 39.8281 46Z" fill="white"/>
<path d="M42.6641 54.5078C42.6641 56.0739 41.3956 57.3438 39.8281 57.3438C38.2606 57.3438 36.9922 56.0739 36.9922 54.5078C36.9922 52.9417 38.2606 51.6719 39.8281 51.6719C41.3956 51.6719 42.6641 52.9417 42.6641 54.5078Z" fill="white"/>
<path fill-rule="evenodd" clip-rule="evenodd" d="M8.63281 68.6875C3.94133 68.6875 0.125 64.8705 0.125 60.1797C0.125 58.5125 0.584732 56.9526 1.45712 55.6481L32.586 4.70858C34.0538 2.20775 36.8399 0.625 39.8281 0.625C42.8164 0.625 45.6025 2.20775 47.0924 4.75428L78.2601 55.7555C79.0715 56.9526 79.5313 58.5125 79.5313 60.1797C79.5313 64.8705 75.7149 68.6875 71.0234 68.6875H8.63281ZM39.8281 6.29688C38.8422 6.29688 37.9338 6.80715 37.4575 7.6186L6.23445 58.7105C5.9215 59.1758 5.79688 59.6466 5.79688 60.1797C5.79688 61.7396 7.0736 63.0156 8.63281 63.0156H71.0234C72.5827 63.0156 73.8594 61.7396 73.8594 60.1797C73.8594 59.6466 73.7348 59.1758 73.491 58.8185L42.2265 7.66361C42.1296 7.5009 42.0188 7.35135 41.8969 7.21495C41.7972 7.10279 41.6892 7.00032 41.5729 6.90754C41.0855 6.51566 40.4734 6.29688 39.8281 6.29688Z" fill="white"/>
</svg>
