<svg width="32" height="33" viewBox="0 0 32 33" fill="none" xmlns="http://www.w3.org/2000/svg">
<path d="M16 0.717407C24.5604 0.717407 31.5 7.65699 31.5 16.2174C31.5 24.7778 24.5604 31.7174 16 31.7174C7.43959 31.7174 0.5 24.7778 0.5 16.2174C0.5 7.65699 7.43959 0.717407 16 0.717407Z" stroke="white"/>
<g clip-path="url(#clip0_2098_43212)">
<path d="M5.88235 25.8717L5.88614 25.8753C5.9866 25.9714 6.10607 26.0477 6.23769 26.0999C6.3693 26.152 6.51046 26.1789 6.65306 26.179C6.77304 26.1789 6.8922 26.1601 7.00577 26.1234L13.1894 24.1306L25.0555 12.8579C25.7809 12.1687 26.1884 11.2339 26.1883 10.2593C26.1883 9.28469 25.7807 8.35 25.0552 7.66087C24.3298 6.97174 23.3459 6.58461 22.3199 6.58466C21.294 6.5847 20.3101 6.97191 19.5847 7.6611L7.71869 18.9338L5.62121 24.8082C5.55514 24.9908 5.5446 25.1875 5.59078 25.3756C5.63697 25.5637 5.73802 25.7356 5.88235 25.8717ZM20.5701 8.59713C21.0348 8.15901 21.6634 7.91369 22.3181 7.91489C22.9728 7.91608 23.6003 8.16369 24.0633 8.6035C24.5262 9.04331 24.7868 9.63947 24.7881 10.2614C24.7893 10.8834 24.5311 11.4805 24.0699 11.922L22.5095 13.4044L19.0096 10.0795L20.5701 8.59713ZM8.93404 19.6514L18.0243 11.0155L21.5242 14.3404L12.4338 22.9762L7.13728 24.6831L8.93404 19.6514Z" fill="white"/>
</g>
<defs>
<clipPath id="clip0_2098_43212">
<rect width="22.2951" height="21.1803" fill="white" transform="translate(4.58984 5.92206)"/>
</clipPath>
</defs>
</svg>
