<svg width="44" height="44" viewBox="0 0 44 44" fill="none" xmlns="http://www.w3.org/2000/svg">
<rect x="0.55" y="0.55" width="42.9" height="42.9" rx="21.45" stroke="white" stroke-width="1.1"/>
<path d="M18.6996 12.0996H13.1996C12.5921 12.0996 12.0996 12.5921 12.0996 13.1996V20.8996C12.0996 21.5071 12.5921 21.9996 13.1996 21.9996H18.6996C19.3071 21.9996 19.7996 21.5071 19.7996 20.8996V13.1996C19.7996 12.5921 19.3071 12.0996 18.6996 12.0996Z" stroke="white" stroke-width="2.2" stroke-linecap="round" stroke-linejoin="round"/>
<path d="M30.8002 12.0996H25.3002C24.6927 12.0996 24.2002 12.5921 24.2002 13.1996V16.4996C24.2002 17.1071 24.6927 17.5996 25.3002 17.5996H30.8002C31.4077 17.5996 31.9002 17.1071 31.9002 16.4996V13.1996C31.9002 12.5921 31.4077 12.0996 30.8002 12.0996Z" stroke="white" stroke-width="2.2" stroke-linecap="round" stroke-linejoin="round"/>
<path d="M30.8002 22H25.3002C24.6927 22 24.2002 22.4925 24.2002 23.1V30.8C24.2002 31.4075 24.6927 31.9 25.3002 31.9H30.8002C31.4077 31.9 31.9002 31.4075 31.9002 30.8V23.1C31.9002 22.4925 31.4077 22 30.8002 22Z" stroke="white" stroke-width="2.2" stroke-linecap="round" stroke-linejoin="round"/>
<path d="M18.6996 26.3994H13.1996C12.5921 26.3994 12.0996 26.8919 12.0996 27.4994V30.7994C12.0996 31.4069 12.5921 31.8994 13.1996 31.8994H18.6996C19.3071 31.8994 19.7996 31.4069 19.7996 30.7994V27.4994C19.7996 26.8919 19.3071 26.3994 18.6996 26.3994Z" stroke="white" stroke-width="2.2" stroke-linecap="round" stroke-linejoin="round"/>
</svg>
