<svg width="25" height="24" viewBox="0 0 25 24" fill="none" xmlns="http://www.w3.org/2000/svg">
<path d="M5.7444 4.81666C5.84391 4.7169 5.96212 4.63776 6.09226 4.58375C6.2224 4.52975 6.36192 4.50195 6.50282 4.50195C6.64373 4.50195 6.78324 4.52975 6.91339 4.58375C7.04353 4.63776 7.16174 4.7169 7.26125 4.81666L12.9302 10.4877L18.5991 4.81666C18.6987 4.71707 18.8169 4.63806 18.947 4.58416C19.0772 4.53026 19.2166 4.50251 19.3575 4.50251C19.4983 4.50251 19.6378 4.53026 19.7679 4.58416C19.8981 4.63806 20.0163 4.71707 20.1159 4.81666C20.2155 4.91626 20.2945 5.0345 20.3484 5.16463C20.4023 5.29476 20.4301 5.43424 20.4301 5.57509C20.4301 5.71594 20.4023 5.85542 20.3484 5.98555C20.2945 6.11568 20.2155 6.23392 20.1159 6.33351L14.4449 12.0024L20.1159 17.6713C20.2155 17.7709 20.2945 17.8892 20.3484 18.0193C20.4023 18.1494 20.4301 18.2889 20.4301 18.4297C20.4301 18.5706 20.4023 18.7101 20.3484 18.8402C20.2945 18.9703 20.2155 19.0886 20.1159 19.1882C20.0163 19.2878 19.8981 19.3668 19.7679 19.4207C19.6378 19.4746 19.4983 19.5023 19.3575 19.5023C19.2166 19.5023 19.0772 19.4746 18.947 19.4207C18.8169 19.3668 18.6987 19.2878 18.5991 19.1882L12.9302 13.5171L7.26125 19.1882C7.16165 19.2878 7.04341 19.3668 6.91328 19.4207C6.78315 19.4746 6.64368 19.5023 6.50282 19.5023C6.36197 19.5023 6.2225 19.4746 6.09237 19.4207C5.96224 19.3668 5.844 19.2878 5.7444 19.1882C5.6448 19.0886 5.5658 18.9703 5.51189 18.8402C5.45799 18.7101 5.43025 18.5706 5.43025 18.4297C5.43025 18.2889 5.45799 18.1494 5.51189 18.0193C5.5658 17.8892 5.6448 17.7709 5.7444 17.6713L11.4154 12.0024L5.7444 6.33351C5.64464 6.23401 5.56549 6.1158 5.51149 5.98565C5.45748 5.85551 5.42969 5.71599 5.42969 5.57509C5.42969 5.43419 5.45748 5.29467 5.51149 5.16452C5.56549 5.03438 5.64464 4.91617 5.7444 4.81666Z" fill="white"/>
</svg>
