<svg width="32" height="33" viewBox="0 0 32 33" fill="none" xmlns="http://www.w3.org/2000/svg">
<path d="M16 0.717407C24.5604 0.717407 31.5 7.65699 31.5 16.2174C31.5 24.7778 24.5604 31.7174 16 31.7174C7.43959 31.7174 0.5 24.7778 0.5 16.2174C0.5 7.65699 7.43959 0.717407 16 0.717407Z" stroke="white"/>
<path fill-rule="evenodd" clip-rule="evenodd" d="M7.37747 9.72789H12.2536L12.2545 9.72789L19.2217 9.72789L19.2226 9.72789H24.0988C24.1947 9.72789 24.273 9.80222 24.273 9.89336V11.2171C24.273 11.3083 24.1947 11.3826 24.0988 11.3826L7.37747 11.3826C7.28153 11.3826 7.20329 11.3083 7.20329 11.2171L7.20329 9.89336C7.20329 9.80222 7.28153 9.72789 7.37747 9.72789ZM19.7443 7.90771V8.73507H24.0988C24.771 8.73507 25.318 9.25478 25.318 9.89336V11.2171C25.318 11.8557 24.771 12.3754 24.0988 12.3754H23.8581L21.9942 25.3627C21.8649 26.2602 21.0486 26.9369 20.0953 26.9369H11.3809C10.4276 26.9369 9.61119 26.2601 9.48188 25.3627L7.61794 12.3754H7.37747C6.70527 12.3754 6.1582 11.8557 6.1582 11.2171L6.1582 9.89336C6.1582 9.25478 6.70527 8.73507 7.37747 8.73507H11.732V7.90771C11.732 6.90389 12.5913 6.08752 13.648 6.08752H17.8283C18.8849 6.08752 19.7443 6.90389 19.7443 7.90771ZM18.6992 7.90771V8.73507L12.7771 8.73507V7.90771C12.7771 7.45134 13.1676 7.08035 13.648 7.08035L17.8283 7.08035C18.3087 7.08035 18.6992 7.45134 18.6992 7.90771ZM10.5175 25.2283L8.67291 12.3754L22.8034 12.3754L20.9588 25.2283C20.9003 25.6364 20.5288 25.9441 20.0954 25.9441H11.3809C10.9475 25.9441 10.576 25.6364 10.5175 25.2283ZM15.2156 23.1311C15.2156 23.4052 15.4496 23.6275 15.7381 23.6275C16.0266 23.6275 16.2607 23.4052 16.2607 23.1311V15.1884C16.2607 14.9144 16.0266 14.692 15.7381 14.692C15.4496 14.692 15.2156 14.9144 15.2156 15.1884V23.1311ZM18.5257 23.6275C18.5019 23.6275 18.4781 23.6262 18.4543 23.623C18.1685 23.5858 17.9685 23.3357 18.0073 23.0639L19.149 15.1213C19.1878 14.8495 19.4565 14.6585 19.7375 14.6966C20.0233 14.7338 20.2233 14.9839 20.1845 15.2557L19.0428 23.1983C19.0067 23.4472 18.7829 23.6275 18.5257 23.6275ZM12.4334 23.1983C12.4695 23.4471 12.6934 23.6275 12.9506 23.6275C12.9743 23.6275 12.9981 23.6259 13.022 23.623C13.3078 23.5859 13.5078 23.3357 13.469 23.0639L12.3273 15.1213C12.2878 14.8495 12.0184 14.6633 11.7387 14.6966C11.453 14.7337 11.2529 14.9839 11.2917 15.2557L12.4334 23.1983Z" fill="white"/>
</svg>
