<svg width="80" height="80" viewBox="0 0 80 80" fill="none" xmlns="http://www.w3.org/2000/svg">
<path d="M63.3333 36.6666H16.6667C12.9848 36.6666 10 39.6514 10 43.3333V66.6666C10 70.3485 12.9848 73.3333 16.6667 73.3333H63.3333C67.0152 73.3333 70 70.3485 70 66.6666V43.3333C70 39.6514 67.0152 36.6666 63.3333 36.6666Z" stroke="black" stroke-width="2" stroke-linecap="round" stroke-linejoin="round"/>
<path d="M23.334 36.6666V23.3333C23.334 18.913 25.0899 14.6738 28.2155 11.5482C31.3411 8.42257 35.5804 6.66663 40.0007 6.66663C44.4209 6.66663 48.6602 8.42257 51.7858 11.5482C54.9114 14.6738 56.6673 18.913 56.6673 23.3333V36.6666" stroke="black" stroke-width="2" stroke-linecap="round" stroke-linejoin="round"/>
</svg>
