<svg width="80" height="81" viewBox="0 0 80 81" fill="none" xmlns="http://www.w3.org/2000/svg">
<path d="M33.552 41.8605L12.952 46.2538C12.1524 46.4273 11.3166 46.2791 10.6254 45.8412C9.93425 45.4033 9.44326 44.7109 9.25863 43.9138L7.46863 36.7471C7.25818 35.8837 7.37769 34.9727 7.80374 34.1928C8.22979 33.4128 8.9317 32.82 9.77196 32.5305L54.7853 17.7305" stroke="black" stroke-width="2" stroke-linecap="round" stroke-linejoin="round"/>
<path d="M45.2031 39.373L59.6431 36.293" stroke="black" stroke-width="2" stroke-linecap="round" stroke-linejoin="round"/>
<path d="M53.3344 70.2176L42.9844 49.5176" stroke="black" stroke-width="2" stroke-linecap="round" stroke-linejoin="round"/>
<path d="M54.9488 20.0169C54.5203 18.3018 54.7906 16.4868 55.7001 14.9709C56.6096 13.4551 58.0839 12.3625 59.7988 11.9335L63.4322 11.0269C64.2892 10.8131 65.1961 10.9482 65.9536 11.4026C66.7111 11.8569 67.2573 12.5934 67.4722 13.4502L72.5222 33.6502C72.737 34.5077 72.6023 35.4155 72.1479 36.1737C71.6934 36.932 70.9564 37.4787 70.0988 37.6935L66.4655 38.6002C64.7504 39.0287 62.9354 38.7585 61.4196 37.849C59.9037 36.9394 58.8112 35.4651 58.3822 33.7502L54.9488 20.0169Z" stroke="black" stroke-width="2" stroke-linecap="round" stroke-linejoin="round"/>
<path d="M20.5273 28.9941L24.2407 43.8475" stroke="black" stroke-width="2" stroke-linecap="round" stroke-linejoin="round"/>
<path d="M26.668 70.2176L37.018 49.5176" stroke="black" stroke-width="2" stroke-linecap="round" stroke-linejoin="round"/>
<path d="M40.0007 50.2161C43.6825 50.2161 46.6673 47.2314 46.6673 43.5495C46.6673 39.8676 43.6825 36.8828 40.0007 36.8828C36.3188 36.8828 33.334 39.8676 33.334 43.5495C33.334 47.2314 36.3188 50.2161 40.0007 50.2161Z" stroke="black" stroke-width="2" stroke-linecap="round" stroke-linejoin="round"/>
</svg>
