<svg width="18" height="17" viewBox="0 0 18 17" fill="none" xmlns="http://www.w3.org/2000/svg">
<path d="M1.5 10.1667H4C4.44203 10.1667 4.86595 10.3423 5.17851 10.6548C5.49107 10.9674 5.66667 11.3913 5.66667 11.8333V14.3333C5.66667 14.7754 5.49107 15.1993 5.17851 15.5118C4.86595 15.8244 4.44203 16 4 16H3.16667C2.72464 16 2.30072 15.8244 1.98816 15.5118C1.67559 15.1993 1.5 14.7754 1.5 14.3333V8.5C1.5 6.51088 2.29018 4.60322 3.6967 3.1967C5.10322 1.79018 7.01088 1 9 1C10.9891 1 12.8968 1.79018 14.3033 3.1967C15.7098 4.60322 16.5 6.51088 16.5 8.5V14.3333C16.5 14.7754 16.3244 15.1993 16.0118 15.5118C15.6993 15.8244 15.2754 16 14.8333 16H14C13.558 16 13.134 15.8244 12.8215 15.5118C12.5089 15.1993 12.3333 14.7754 12.3333 14.3333V11.8333C12.3333 11.3913 12.5089 10.9674 12.8215 10.6548C13.134 10.3423 13.558 10.1667 14 10.1667H16.5" stroke="#A0A0A0" stroke-width="1.66667" stroke-linecap="round" stroke-linejoin="round"/>
</svg>
