<svg width="20" height="21" viewBox="0 0 20 21" fill="none" xmlns="http://www.w3.org/2000/svg">
<path d="M2.5 12.1667H5C5.44203 12.1667 5.86595 12.3423 6.17851 12.6548C6.49107 12.9674 6.66667 13.3913 6.66667 13.8333V16.3333C6.66667 16.7754 6.49107 17.1993 6.17851 17.5118C5.86595 17.8244 5.44203 18 5 18H4.16667C3.72464 18 3.30072 17.8244 2.98816 17.5118C2.67559 17.1993 2.5 16.7754 2.5 16.3333V10.5C2.5 8.51088 3.29018 6.60322 4.6967 5.1967C6.10322 3.79018 8.01088 3 10 3C11.9891 3 13.8968 3.79018 15.3033 5.1967C16.7098 6.60322 17.5 8.51088 17.5 10.5V16.3333C17.5 16.7754 17.3244 17.1993 17.0118 17.5118C16.6993 17.8244 16.2754 18 15.8333 18H15C14.558 18 14.134 17.8244 13.8215 17.5118C13.5089 17.1993 13.3333 16.7754 13.3333 16.3333V13.8333C13.3333 13.3913 13.5089 12.9674 13.8215 12.6548C14.134 12.3423 14.558 12.1667 15 12.1667H17.5" stroke="white" stroke-width="1.66667" stroke-linecap="round" stroke-linejoin="round"/>
</svg>
