<svg width="80" height="80" viewBox="0 0 80 80" fill="none" xmlns="http://www.w3.org/2000/svg">
<path d="M63.3333 36.666H16.6667C12.9848 36.666 10 39.6508 10 43.3327V66.666C10 70.3479 12.9848 73.3327 16.6667 73.3327H63.3333C67.0152 73.3327 70 70.3479 70 66.666V43.3327C70 39.6508 67.0152 36.666 63.3333 36.666Z" stroke="white" stroke-width="2" stroke-linecap="round" stroke-linejoin="round"/>
<path d="M23.334 36.666V23.3327C23.334 18.9124 25.0899 14.6732 28.2155 11.5476C31.3411 8.42196 35.5804 6.66602 40.0007 6.66602C44.4209 6.66602 48.6602 8.42196 51.7858 11.5476C54.9114 14.6732 56.6673 18.9124 56.6673 23.3327V36.666" stroke="white" stroke-width="2" stroke-linecap="round" stroke-linejoin="round"/>
</svg>
