<svg width="20" height="19" viewBox="0 0 20 19" fill="none" xmlns="http://www.w3.org/2000/svg">
<path d="M3.58179 18.0625C3.48429 18.6175 4.03179 19.0513 4.51429 18.8038L10.0018 15.9838L15.488 18.8038C15.9705 19.0513 16.518 18.6175 16.4205 18.0638L15.383 12.1513L19.7855 7.95628C20.198 7.56378 19.9855 6.84628 19.433 6.76878L13.3105 5.89878L10.5805 0.490026C10.5285 0.380387 10.4465 0.287755 10.3439 0.222891C10.2414 0.158028 10.1225 0.123596 10.0012 0.123596C9.87982 0.123596 9.76096 0.158028 9.65841 0.222891C9.55585 0.287755 9.4738 0.380387 9.42179 0.490026L6.69179 5.90003L0.569293 6.77003C0.0180433 6.84753 -0.195707 7.56503 0.215543 7.95753L4.61929 12.1525L3.58179 18.065V18.0625ZM9.71304 14.6038L5.10554 16.9713L5.97304 12.025C5.99337 11.9112 5.98541 11.7941 5.94989 11.684C5.91436 11.5739 5.85235 11.4743 5.76929 11.3938L2.13679 7.93128L7.20179 7.21128C7.30667 7.19544 7.40615 7.15441 7.49171 7.09172C7.57727 7.02902 7.64635 6.94652 7.69304 6.85128L9.99929 2.27878L12.308 6.85128C12.3547 6.94652 12.4238 7.02902 12.5094 7.09172C12.5949 7.15441 12.6944 7.19544 12.7993 7.21128L17.8643 7.93003L14.2318 11.3925C14.1485 11.4731 14.0864 11.573 14.0509 11.6833C14.0153 11.7936 14.0075 11.911 14.028 12.025L14.8955 16.9713L10.288 14.6038C10.1989 14.5578 10.1002 14.5339 9.99992 14.5339C9.89968 14.5339 9.80214 14.5578 9.71304 14.6038Z" fill="#A0A0A0"/>
</svg>
