<svg width="324" height="352" viewBox="0 0 324 352" fill="none" xmlns="http://www.w3.org/2000/svg">
<g opacity="0.1">
<path fill-rule="evenodd" clip-rule="evenodd" d="M302.406 101.984C301.079 102.197 299.932 100.46 298.923 98.2482C280.167 37.8826 230.891 14.086 172.574 4.17599C170.636 3.65651 169.346 2.81551 169.495 2.10952C170.159 0.513664 174.313 0.695029 176.17 0.933616C231.856 6.28513 288.05 40.1267 302.901 96.4027C303.448 97.967 303.841 101.613 302.445 101.975L302.404 101.988L302.406 101.984ZM156.013 4.44058C158.342 3.97289 160.617 2.15175 157.778 0.744876L157.715 0.714239C156.269 0.119095 154.51 0.0422607 152.914 0.0748416C114.429 2.05924 71.4887 19.7583 42.4952 43.6429C18.1152 65.356 5.21967 104 3.82488 136.469C3.72496 139.593 3.72315 142.67 3.87553 145.673C3.9593 147.077 4.17195 148.68 4.934 149.835C5.28315 150.285 5.60809 150.519 6.07143 150.372C7.74815 149.337 7.89819 145.873 8.02398 142.97C8.07145 141.874 8.11547 140.858 8.23675 140.082C10.4927 113.391 17.1399 83.9422 32.4329 61.7713C61.3036 25.561 110.798 8.14464 156.013 4.44058ZM298.334 137.086C297.076 80.9021 259.68 32.5322 204.609 18.9812L204.607 18.9859L204.513 18.9556C139.705 0.307767 40.7324 27.2636 24.3469 99.4914C21.4526 109.526 17.1842 124.755 16.7428 134.503C16.1488 142.995 20.4682 145.117 21.6361 136.133C24.0847 115.213 29.9677 91.3421 39.6651 73.6371C112.052 -20.1069 288.898 6.723 294.567 137.45C295.384 141.488 297.67 141.786 298.334 137.086ZM251.127 233.386C297.72 215.016 292.949 122.321 271.231 84.3738L271.227 84.3723L271.185 84.2913C228.14 4.45223 94.1085 8.62695 45.472 79.6393C40.7332 86.7496 38.6614 94.6236 36.4873 102.887C36.2643 103.734 36.0402 104.586 35.812 105.441C33.338 115.326 31.4732 125.308 29.6088 135.288L29.6087 135.289C27.9253 144.3 26.242 153.31 24.1108 162.246C2.88101 257.541 97.4923 342.041 184.078 300.926C185.145 299.678 184.328 298.776 182.955 298.454C180.945 297.972 178.662 298.511 176.64 298.988L176.558 299.007C174.167 299.628 171.54 300.451 168.926 301.27C167.385 301.753 165.848 302.235 164.367 302.673C159.989 303.984 155.764 304.85 151.132 305.414C65.0687 316.286 7.08031 229.447 32.0633 150.193C33.1606 146.361 34.1015 142.384 34.7983 138.423C35.45 134.817 36.0408 131.249 36.6241 127.728C40.8996 101.914 44.7679 78.5582 69.2397 60.2666C103.931 34.7672 151.366 24.6124 193.561 34.194C255.49 48.3595 284.998 98.2329 282.672 160.616C281.535 185.977 272.129 216.988 250.911 230.842C250.055 231.804 249.691 233.211 251.127 233.386ZM251.222 77.445C240.144 57.728 212.57 47.4513 191.911 41.2963L191.913 41.3072L191.828 41.2799C152.08 31.7835 99.538 44.3045 69.2008 69.3116C60.2786 76.8619 54.8039 86.982 50.9496 98.4498C47.1891 109.751 45.1432 121.372 43.0961 133L43.0961 133L43.0961 133L43.096 133.001L43.096 133.001L43.096 133.001L43.0959 133.001L43.0959 133.001L43.0959 133.001L43.0958 133.001L43.0958 133.001L43.0958 133.002L43.0957 133.002L43.0957 133.002L43.0957 133.002L43.0957 133.002L43.0956 133.002L43.0956 133.002L43.0956 133.003L43.0955 133.003L43.0955 133.003L43.0955 133.003L43.0954 133.003L43.0954 133.003L43.0954 133.003L43.0953 133.003L43.0953 133.004L43.0953 133.004L43.0952 133.004L43.0952 133.004L43.0952 133.004L43.0952 133.004L43.0951 133.004L43.0951 133.005L43.0951 133.005L43.095 133.005L43.095 133.005L43.095 133.005L43.0949 133.005L43.0949 133.005L43.0949 133.006C41.5997 141.499 40.1039 149.996 37.9384 158.374C13.2663 272.699 113.749 323.243 203.561 286.727C220.415 281.935 234.303 273.736 247.606 261.745C257.522 253.288 266.858 243.806 274.384 233.451C291.026 210.706 300.945 183.193 299.446 153.74C299.267 152.31 298.892 151.035 298.396 150.314C297.646 149.121 296.55 149.439 295.939 151.307C295.573 152.349 295.366 153.785 295.28 155.265C295.19 186.246 284.748 213.85 267.312 235.311C235.045 275.389 180.379 295.921 129.085 293.936C62.4796 287.959 25.2254 220.282 42.6868 158.289C45.1848 150.024 46.5114 142.427 47.9472 134.204C48.4253 131.465 48.9156 128.657 49.4654 125.732C49.7476 124.366 50.0274 122.98 50.3099 121.582C53.2024 107.262 56.3748 91.5561 65.2087 80.4803C111.556 34.9838 201.759 27.3261 247.577 78.6232C249.565 80.2504 252.009 80.6565 251.222 77.445ZM306.696 114.51C307.446 114.33 308.394 115.472 309.018 117.331C309.102 117.572 309.177 117.824 309.25 118.082C326.266 201.171 278.194 266.645 210.145 302.875C129.49 353.857 32.1166 306.045 12.1403 220.486C7.91427 202.213 7.42418 181.83 11.916 161.832C12.2014 160.702 12.5341 159.603 12.9249 158.662C13.6039 156.858 15.2609 154.729 16.2263 156.901C16.8854 158.829 16.489 161.452 16.1253 163.617C9.23421 198.852 16.7282 234.788 36.3518 263.482C71.4818 315.065 138.945 336.532 199.706 302.887C257.59 274.032 305.128 224.623 307.389 158.902C308.198 146.559 307.126 132.898 305.394 119.561C305.396 119.347 305.394 119.123 305.393 118.893C305.381 117.169 305.367 115.121 306.659 114.514L306.698 114.505L306.696 114.51ZM279.374 262.232C280.163 263.837 277.367 267.181 275.945 268.611C190.391 363.96 28.342 359.431 0.647722 220.056C0.219432 217.604 0.646101 212.818 2.71409 214.309C4.04246 215.378 4.81409 218.749 5.39479 221.287L5.39491 221.287C5.51123 221.796 5.61988 222.27 5.72383 222.687L5.87893 223.387C6.80442 227.567 7.66114 231.437 8.86808 235.48C37.9955 336.268 164.234 356.489 240.041 292.675C247.418 287.197 254.579 281.648 261.492 275.397C263.766 273.387 266.018 271.344 268.255 269.315L268.258 269.313L268.26 269.31L268.261 269.31L268.261 269.31L268.261 269.309L268.262 269.309L268.262 269.308L268.263 269.308L268.263 269.308C270.077 267.662 271.881 266.026 273.678 264.424C274.971 263.363 276.495 262.148 278.073 261.85C278.677 261.748 279.128 261.867 279.352 262.204L279.373 262.237L279.374 262.232ZM54.5056 134.829C54.1524 136.946 53.4697 141.801 55.9242 141.509L55.9304 141.505L55.9757 141.494C58.133 140.481 58.8679 137.828 59.5223 135.465C59.6333 135.065 59.742 134.672 59.855 134.298C60.8691 130.085 61.5552 125.828 62.2387 121.587C63.7884 111.971 65.3249 102.437 70.6416 93.6911C72.4628 90.6632 74.8857 87.834 77.4304 85.5639C121.542 46.9394 203.707 41.7713 241.921 90.4566C242.674 91.4232 243.431 92.4473 244.191 93.4741L244.191 93.4747C245.176 94.8062 246.164 96.1424 247.15 97.3638C248.348 98.9915 251.335 101.652 252.715 99.8187C254.397 97.4863 249.794 91.9029 246.935 88.436C246.271 87.631 245.702 86.94 245.327 86.4304C204.479 36.3314 119.956 41.3132 73.6799 82.0284C71.3046 84.1762 69.1793 86.5812 67.4485 89.2794C60.2127 100.55 57.7723 115.25 55.5031 128.92C55.1717 130.916 54.844 132.89 54.5056 134.829ZM251.288 205.303C248.613 206.263 249.638 201.897 250.164 200.486C281.201 129.731 212.463 50.1612 138.386 69.0154C138.137 69.029 137.89 69.0379 137.652 69.0341C135.946 69.0209 134.817 68.4396 134.847 67.5862C134.751 66.4946 137.107 65.006 138.569 64.6133C188.28 51.0359 242.158 83.0408 257.344 131.761C263.595 152.255 265.312 176.1 257.106 196.443C256.829 197.024 256.562 197.634 256.29 198.255C255.1 200.973 253.828 203.878 251.336 205.282L251.288 205.303ZM55.093 152.081C55.4424 150.348 55.3173 147.698 53.8774 147.567L53.8836 147.564L53.8381 147.56C52.886 147.368 51.5053 148.994 50.9154 150.343C33.0734 199.469 54.6226 264.487 106.445 281.818C107.826 282.164 109.971 282.027 110.28 281.242C110.751 280.167 109.577 279.129 107.87 278.034C57.6157 256.392 39.1489 203.05 55.093 152.081ZM236.803 162.086C241.229 164.633 237.01 179.523 235.631 184.389L235.56 184.642C231.195 198.28 230.068 201.365 216.859 207.126C213.183 208.823 210.001 211.372 206.821 213.919C202.997 216.982 199.177 220.041 194.506 221.614C188.677 224.366 142.213 236.466 140.699 228.237C140.718 225.389 146.593 225.389 150.687 225.388L150.687 225.388L150.687 225.388L150.688 225.388C152.052 225.388 153.218 225.388 153.905 225.283C172.755 223.9 193.795 218.588 209.037 207.116C210.564 206.006 212.131 204.934 213.791 204.023C214.598 203.569 215.436 203.152 216.286 202.729L216.286 202.728C218.168 201.79 220.105 200.825 221.876 199.385C223.165 198.349 224.309 197.152 225.31 195.82C229.645 190.78 231.182 181.186 232.414 173.498C233.516 166.62 234.373 161.268 236.772 162.071L236.805 162.081L236.803 162.086ZM25.505 290.875C24.2545 289.719 22.8807 288.882 21.9857 288.916L21.9919 288.913L21.9434 288.918C20.8068 288.896 20.9277 290.557 21.4168 291.656C22.2106 293.601 23.9379 295.732 25.4431 297.437C52.2446 325.913 93.2251 346.127 132.413 346.646C135.682 346.117 135.57 343.959 132.405 342.999C92.5179 339.224 52.3189 321.107 25.505 290.875ZM101.359 80.744C101.927 82.7941 98.6425 84.8636 96.2469 86.3729C95.6808 86.7296 95.1643 87.055 94.7601 87.3414C78.3524 97.2155 76.0938 112.513 73.6566 129.02C72.9297 133.944 72.1869 138.975 71.0481 144.001C69.9481 148.601 68.4416 152.997 66.924 157.425L66.9173 157.444C65.8729 160.514 64.8656 163.533 64.1003 166.657C63.6088 168.602 63.2228 170.641 62.8371 172.679L62.8369 172.68C62.6239 173.805 62.411 174.93 62.1805 176.038C61.76 178.008 60.6902 182.224 58.4911 182.094C55.0658 180.679 57.8885 170.279 59.125 165.723C59.262 165.218 59.3796 164.785 59.467 164.444C60.2152 161.857 61.0423 159.281 61.8689 156.707L61.8692 156.706C62.8392 153.686 63.8085 150.668 64.6485 147.637C66.7868 140.806 67.8057 133.705 68.8101 126.704C70.9364 111.884 72.9983 97.5133 85.4783 87.1017C88.471 84.5702 98.1401 77.494 101.336 80.7004L101.359 80.744ZM322.362 132.729C322.103 130.117 321.667 125.714 319.309 125.255L319.314 125.257L319.272 125.259C316.572 125.818 317.195 132.653 317.592 137.003C317.701 138.199 317.793 139.208 317.794 139.846C321.879 174.675 314.878 201.748 299.515 232.788C298.923 234.61 299.057 236.119 299.864 236.488C300.572 236.856 301.809 236.292 302.97 235.074C322.267 206.501 325.334 167.28 322.433 133.424C322.41 133.212 322.386 132.979 322.362 132.729ZM119.712 100.197C121.702 100.462 121.895 102.9 121.246 104.402C119.734 108.589 115.71 121.352 110.988 136.328L110.988 136.329L110.988 136.329L110.988 136.329L110.988 136.329L110.987 136.33L110.987 136.33C103.075 161.424 93.2031 192.734 89.9029 200.344C88.05 201.869 85.6198 199.58 86.1786 197.357C87.371 193.242 88.5246 189.714 89.9667 185.303C90.9881 182.178 92.1543 178.611 93.5815 174.079L116.342 103.304C116.744 101.811 117.871 99.9891 119.665 100.181L119.711 100.186L119.712 100.197ZM180.761 81.3532C206.553 88.2959 226.15 105.174 237.245 129.201L237.24 129.2L237.288 129.293C238.73 132.079 240.021 134.895 241.314 137.714L241.315 137.716L241.315 137.717C242.002 139.216 242.69 140.717 243.401 142.215C244.489 144.524 247.575 147.732 247.435 142.737C240.932 111.269 212.817 82.6412 180.473 76.3941C177.544 75.9978 174.02 77.4487 177.41 79.8234C178.281 80.4152 179.49 80.9237 180.761 81.3532ZM119.515 236.57C121.398 235.475 123.692 235.893 125.933 236.302C126.637 236.43 127.336 236.557 128.015 236.637C129.463 236.873 130.98 237.086 132.302 237.178C150.722 237.944 190.967 231.971 207.069 222.872C209.329 221.503 211.412 219.719 213.51 217.922C214.743 216.866 215.982 215.804 217.265 214.821C218.635 213.681 222.129 211.888 223.115 213.541C223.561 214.288 223.165 215.616 222.143 216.904C203.282 235.666 155.929 243.804 129.547 242.027C126.477 241.711 122.44 241.119 120.445 239.646C118.997 238.619 118.589 237.333 119.478 236.605L119.52 236.572L119.515 236.57ZM239.348 234.655C240.132 233.317 240.386 231.979 240.007 231.233L240.002 231.231L239.98 231.188C238.502 229.236 235.219 232.215 233.789 233.606C216.238 252.112 192.415 259.307 168.656 266.482C167.985 266.685 167.315 266.887 166.644 267.09C163.457 268.722 163.924 271.134 167.457 271.288C191.36 267.775 224.668 254.096 239.348 234.655ZM221.304 182.955C222.637 182.9 223.006 184.292 222.563 186.074C222.111 187.836 220.79 189.809 219.348 191.399C216.648 194.394 213.292 196.272 209.819 198.215C209.6 198.337 209.38 198.46 209.16 198.584C206.66 199.968 204.024 201.582 201.549 203.098C200.631 203.661 199.735 204.21 198.875 204.729C191.2 209.55 183.244 212.092 174.382 214.41C173.665 214.58 172.698 214.842 171.564 215.149C165.536 216.782 154.792 219.693 151.8 216.871C150.436 214.597 155.465 213.412 157.415 213.056C173.245 210.395 189.078 206.512 202.223 197.263C203.783 196.126 205.444 195.123 207.103 194.12C209.552 192.641 211.996 191.163 214.107 189.266C214.896 188.596 215.636 187.719 216.385 186.831L216.385 186.83C217.827 185.121 219.304 183.369 221.243 182.967L221.301 182.964L221.304 182.955ZM103.555 118.965C104.228 116.686 105.363 112.84 102.948 111.855L102.941 111.863L102.898 111.849C100.791 111.652 100.123 114.162 99.671 115.861L99.67 115.864C99.6482 115.946 99.6269 116.026 99.606 116.104C99.0447 118.237 98.0528 121.241 96.8008 124.811C96.2534 126.693 94.8064 130.58 92.9913 135.456C87.1457 151.159 77.4815 177.121 81.7438 179.424C82.9826 179.63 83.6499 178.638 84.657 177.074C90.0821 164.711 93.9579 151.35 97.7877 138.147L97.7878 138.147L97.7879 138.147L97.788 138.146L97.7881 138.146L97.7883 138.146L97.7884 138.145L97.7885 138.145L97.7886 138.145L97.7887 138.144L97.7888 138.144L97.7889 138.144L97.789 138.143L97.7892 138.143L97.7893 138.143L97.7894 138.142L97.7895 138.142L97.7896 138.141L97.7897 138.141L97.7898 138.141L97.79 138.14L97.7901 138.14C99.6209 131.828 101.441 125.553 103.415 119.44C103.458 119.292 103.505 119.133 103.555 118.965ZM246.401 241.958C247.489 241.808 248.02 242.468 247.647 243.726C246.622 246.798 242.325 250.387 238.731 253.39C238.265 253.779 237.812 254.158 237.378 254.524C224.387 265.95 207.886 273.865 191.114 277.659C189.59 278.001 187.892 278.302 186.376 278.231C183.035 278.144 181.827 275.884 185.164 274.238C186.581 273.515 188.492 273.059 190.135 272.668L190.135 272.668L190.141 272.667C209.909 268.058 226.071 256.93 241.575 244.643C242.904 243.584 244.959 242.139 246.341 241.965L246.401 241.958ZM102.766 96.8681C104.549 95.7049 108.246 92.4224 105.091 91.3663L105.025 91.3451C101.812 90.7676 98.3424 93.2335 95.5935 95.1872L95.5925 95.1879L95.5663 95.2065L95.3474 95.362L95.1919 95.4723C83.5514 103.596 82.4851 115.262 81.3394 127.796C81.2201 129.1 81.1001 130.414 80.9671 131.734C80.5368 135.287 79.7543 138.706 78.6244 142.123C78.3495 143.051 78.0161 144.027 77.6745 145.028C76.7354 147.779 75.7335 150.714 75.7097 153.337C75.8529 156.804 78.6167 156.455 80.3494 153.929C84.1242 146.387 85.1756 138.229 86.1979 130.296C87.8698 117.322 89.4639 104.951 102.766 96.8681ZM95.2892 349.75C95.7151 350.786 94.7337 351.687 92.8332 351.809C89.4476 352.024 83.6988 349.697 79.5533 348.02L79.2269 347.887L78.9575 347.779C60.529 340.121 41.7714 329.331 28.1552 314.631C26.268 311.882 27.2908 309.882 30.4966 311.651C47.1008 325.435 64.812 338.67 85.6285 345.078C86.043 345.214 86.4686 345.352 86.8991 345.491L86.9132 345.495C88.8475 346.12 90.8801 346.776 92.4555 347.487C93.934 348.16 94.9583 348.952 95.2746 349.698L95.2907 349.745L95.2892 349.75ZM159.245 265.055C160.433 264.158 160.542 262.654 158.991 261.978L158.985 261.981L158.922 261.951C157.484 261.265 155.006 261.404 153.21 261.523C134.072 262.897 116.128 257.386 100.739 246.032L100.6 245.93C99.3958 245.046 98.0181 244.034 96.7267 243.504C93.4246 242.099 92.7474 244.366 94.5613 246.842C105.456 258.348 126.139 266.091 141.83 266.79C142.527 266.797 143.352 266.823 144.26 266.851L144.263 266.851L144.264 266.851C149.134 267.002 156.395 267.227 159.245 265.055ZM148.635 251.67C149.389 252.335 149.35 253.175 148.627 253.86C147.313 255.141 144.452 255.332 142.498 255.128C128.588 253.718 105.461 244.828 96.633 235.018C95.7931 234.094 94.7788 232.461 95.1935 231.42C96.3644 229.385 100.124 231.751 101.802 232.939C113.382 242.686 129.095 247.876 143.839 250.095C145.378 250.339 147.578 250.751 148.589 251.625L148.635 251.663L148.635 251.67ZM70.2265 187.689C70.1055 186.464 69.689 184.687 69.0913 184.121L69.0976 184.118L69.058 184.079C68.4028 183.4 67.556 183.705 66.9106 184.693C65.9335 186.131 65.736 188.621 65.82 190.493C66.6572 205.82 74.6187 223.698 84.0318 235.72C85.1906 237.242 87.4732 239.78 89.349 239.089C90.8902 238.29 89.4545 235.317 88.4899 233.951C87.7538 232.862 86.9919 231.783 86.2294 230.703L86.2292 230.702L86.229 230.702L86.2287 230.702L86.2285 230.701L86.2282 230.701L86.228 230.701L86.2277 230.7L86.2275 230.7L86.2273 230.699L86.227 230.699L86.2268 230.699L86.2265 230.698L86.2263 230.698L86.226 230.698L86.2258 230.697L86.2252 230.696C84.3619 228.057 82.4949 225.412 80.9874 222.601C76.4544 214.061 71.7946 203.895 70.7442 194.292C70.6273 193.233 70.5563 192.112 70.4853 190.99C70.4143 189.869 70.3434 188.748 70.2265 187.689ZM92.5207 259.185C92.1824 258.135 92.6233 257.346 93.7618 257.249C95.9812 257.243 98.1949 258.595 100.259 259.855C100.953 260.279 101.631 260.693 102.286 261.041C104.227 262.185 106.147 263.198 108.169 264.155C117.565 268.695 127.433 271.915 137.8 273.112C139.455 273.399 142.471 274.141 142.54 275.785C141.903 278.488 136.573 277.913 134.054 277.642L134.054 277.642C133.924 277.628 133.802 277.614 133.689 277.603C120.784 275.953 106.629 270.221 96.0212 263.061C94.6527 262.142 92.99 260.635 92.5385 259.242L92.5175 259.178L92.5207 259.185ZM185.455 251.605C191.937 251.675 237.74 231.289 235.488 225.338L235.486 225.331L235.46 225.295C232.912 222.877 227.473 226.561 224.149 228.813C223.584 229.195 223.081 229.537 222.662 229.799C220.36 231.367 218.166 232.774 215.752 234.069C210.857 236.686 205.51 239.175 200.253 240.849C197.893 241.64 185.265 246.184 183.245 247.644C180.425 249.699 182.546 251.701 185.455 251.605ZM269.767 141.376C273.828 139.5 274.675 157.175 274.802 160.772C274.9 167.225 275.028 181.362 270.842 184.227C268.145 185.011 268.632 179.571 268.816 177.507L268.818 177.492C268.827 177.385 268.836 177.287 268.843 177.199C269.925 167.143 269.247 157.124 268.243 147.053C268.113 145.227 268.401 142.278 269.727 141.405L269.766 141.381L269.767 141.376ZM65.2645 228.014C66.8699 231.64 82.1665 257.185 85.6421 252.958L85.6358 252.961L85.6589 252.922C86.4868 251.576 84.9929 248.865 83.8699 247.474C76.8918 239.23 71.5295 229.39 66.6611 219.63C65.729 217.791 64.0605 214.992 62.1173 214.648C61.442 214.582 61.0208 215.018 60.8871 215.693C60.7381 218.759 62.638 222.714 65.2645 228.014ZM247.714 153.007C250.223 155.603 250.277 166.524 249.962 170.462L249.96 170.487C249.676 174.27 248.461 190.405 243.437 189.686C241.74 188.834 242.129 185.605 242.432 183.821C242.665 182.523 242.945 181.22 243.227 179.911L243.227 179.911C243.881 176.867 244.542 173.791 244.633 170.672C244.752 168.318 244.563 165.914 244.373 163.52L244.373 163.519C244.208 161.423 244.042 159.334 244.086 157.289C244.044 155.238 245.401 151.323 247.665 152.966L247.714 153.007ZM244.356 198.79C244.562 197.728 244.234 196.437 243.158 196.08L243.153 196.079L243.101 196.062C240.869 195.725 239.151 198.155 237.663 200.259C237.118 201.03 236.605 201.757 236.108 202.288C234.621 204.145 232.952 205.682 231.026 206.95C230.678 207.199 230.304 207.446 229.921 207.699L229.92 207.699C228.424 208.688 226.8 209.761 226.119 211.31C225.519 212.854 227.241 213.433 228.498 213.276C234.009 212.792 243.508 203.914 244.356 198.79ZM127.093 69.5651C128.764 69.9308 129.526 71.6525 128.147 72.852C126.995 73.9221 124.515 75.078 122.23 76.1428L122.23 76.1428L122.23 76.143L122.229 76.1431C121.174 76.6349 120.16 77.1073 119.338 77.5429C119.037 77.6869 118.723 77.8416 118.399 78.0006C115.05 79.6476 110.738 81.768 110.547 77.539C110.947 75.4075 113.031 74.3855 115.115 73.3638L115.336 73.2556C117.189 72.4063 119.468 71.4648 121.443 70.7066C123.671 69.858 125.649 69.2047 127.024 69.5533L127.095 69.576L127.093 69.5651ZM268.091 109.23C267.208 106.538 266.1 103.162 263.823 103.188L263.828 103.19L263.773 103.198C260.889 104.258 262.526 109.647 263.602 113.189L263.603 113.195L263.61 113.216L263.703 113.522L263.748 113.672C263.931 114.159 264.101 114.655 264.27 115.145C265.127 117.639 265.944 120.017 268.169 120.636C271.873 120.697 270.207 115.644 269.169 112.497C268.971 111.895 268.795 111.363 268.684 110.949C268.491 110.448 268.297 109.857 268.091 109.23ZM265.091 197.741C267.775 198.272 265.925 202.699 265.026 204.781C264.789 205.255 264.553 205.773 264.309 206.309L264.309 206.31C263.288 208.552 262.128 211.102 260.105 212.017C259.313 212.266 258.677 211.719 258.449 210.99C257.844 208.856 258.905 206.392 259.921 204.036L260.061 203.711L260.098 203.624L260.171 203.454C260.328 203.146 260.482 202.833 260.635 202.521L260.637 202.518L260.638 202.515C261.736 200.282 262.832 198.056 265.035 197.739L265.091 197.741ZM62.8299 208.073C62.2669 205.216 60.6578 197.051 58.2911 196.219L58.2848 196.222L58.2377 196.207C56.4908 196.061 56.2373 199.016 56.4293 201.475C56.7107 204.399 57.5278 208.083 59.0372 210.196C61.2509 213.175 63.5552 212.008 62.8691 208.272L62.8299 208.073ZM158.979 279.689C160.436 278.421 163.209 278.19 165.208 278.328C166.456 278.459 167.691 278.643 168.281 279.623C168.652 280.377 168.105 281.173 167.517 281.691C165.534 283.492 160.286 284.305 158.666 282.812C157.679 281.985 157.959 280.531 158.912 279.75L158.977 279.693L158.979 279.689ZM138.039 284.509C135.806 283.385 131.61 282.4 129.417 283.623L129.416 283.628L129.355 283.671C128.4 284.346 128.654 285.593 129.441 286.298C131.093 287.999 137.522 288.528 139.131 286.529C139.622 285.668 138.825 284.975 138.039 284.509ZM260.848 90.9034C263.226 91.268 264.619 95.6518 263.145 97.5177C262.68 98.0908 261.916 98.2507 261.251 97.9588C259.087 97.1693 257.331 91.2804 260.771 90.8995L260.848 90.9034ZM245.2 212.824C243.858 214.394 245.727 217.101 247.649 216.607L247.652 216.613L247.738 216.589C249.178 216.121 249.356 213.984 248.476 212.905C247.707 211.884 245.976 211.868 245.2 212.824ZM242.785 222.857C241.947 225.187 238.319 224.083 238.953 221.677C239.662 219.149 243.513 220.268 242.815 222.763L242.786 222.852L242.785 222.857ZM151.965 252.71C151.331 255.116 154.959 256.221 155.797 253.89L155.798 253.886L155.827 253.796C156.525 251.301 152.674 250.182 151.965 252.71Z" fill="white"/>
</g>
</svg>