<svg width="780" height="636" viewBox="0 0 780 636" fill="none" xmlns="http://www.w3.org/2000/svg">
<g opacity="0.1">
<path fill-rule="evenodd" clip-rule="evenodd" d="M665.644 178.824C663.112 179.41 660.668 176.211 658.427 172.075C614.236 58.0462 515.979 18.639 402.11 7.23083C398.299 6.48479 395.699 5.03225 395.893 3.6499C396.964 0.48185 405.004 0.282159 408.62 0.496786C516.808 3.45483 629.749 61.334 665.861 167.987C667.124 170.933 668.364 177.919 665.719 178.803L665.642 178.833L665.644 178.824ZM370.301 9.93154C374.734 8.72058 378.885 4.90441 373.22 2.56477L373.094 2.51396C370.224 1.55673 366.819 1.64123 363.743 1.91541C289.726 10.8396 209.189 50.6844 156.389 100.622C112.207 145.757 92.4326 222.051 94.0382 284.904C94.2588 290.946 94.6626 296.886 95.3541 302.661C95.7017 305.361 96.3243 308.425 97.948 310.554C98.6815 311.376 99.3397 311.786 100.214 311.44C103.314 309.221 103.145 302.516 103.003 296.894C102.95 294.773 102.9 292.806 103.032 291.293C103.853 239.478 112.785 181.759 139.368 136.943C190.298 63.2324 283.522 23.0656 370.301 9.93154ZM662.428 247.114C652.563 138.84 573.984 50.4311 465.896 31.5659L465.894 31.5752L465.708 31.5292C338.152 4.11556 150.693 69.2436 128.628 210.819C124.37 230.57 118.147 260.529 118.585 279.401C118.563 295.87 127.18 299.394 128.246 281.901C130.203 241.199 138.398 194.346 154.771 158.89C282.079 -31.6264 626.96 -3.25054 655.205 248.315C657.318 256 661.768 256.273 662.428 247.114ZM584.133 439.229C671.631 397.605 650.153 219.325 603.213 148.959L603.204 148.957L603.113 148.806C509.464 0.406652 251.321 26.2055 166.847 169.704C158.642 184.055 155.685 199.527 152.583 215.763L152.582 215.764C152.264 217.429 151.944 219.102 151.617 220.783C148.151 240.19 145.873 259.703 143.595 279.212C141.539 296.828 139.482 314.441 136.552 331.971C108.189 518.709 301.983 669.279 463.661 578.463C465.555 575.913 463.858 574.279 461.166 573.84C457.222 573.175 452.888 574.517 449.048 575.706L448.893 575.754C444.36 577.269 439.399 579.205 434.463 581.132C431.552 582.268 428.649 583.401 425.848 584.442C417.571 587.553 409.531 589.784 400.665 591.486C235.994 623.861 112.576 463.929 150.305 307.655C151.916 300.113 153.206 292.313 154.026 284.575C154.807 277.528 155.475 270.565 156.135 263.691C160.97 213.301 165.345 167.711 210.157 129.167C273.74 75.3586 363.95 49.48 446.659 62.3883C568.065 81.5317 631.619 173.886 635.386 294.6C636.549 343.699 622.499 404.798 583.379 434.347C581.855 436.317 581.339 439.08 584.133 439.229ZM563.77 138.234C539.78 101.645 485.199 85.4594 444.51 76.3142L444.515 76.3351L444.348 76.2937C366.373 63.2258 266.618 94.3475 211.374 146.629C195.153 162.383 185.926 182.64 180.004 205.285C174.242 227.594 171.831 250.296 169.419 273.01C167.657 289.605 165.894 306.206 162.823 322.667C130.335 546.59 330.968 630.844 499.482 548.478C531.376 536.998 557.097 519.334 581.187 494.43C599.206 476.793 615.97 457.257 629.125 436.276C658.236 390.172 673.739 335.757 666.948 279.107C666.412 276.37 665.519 273.959 664.466 272.633C662.861 270.431 660.789 271.19 659.857 274.876C659.288 276.935 659.078 279.734 659.108 282.602C663.036 342.41 646.535 397.071 615.723 440.801C558.749 522.427 455.955 569.29 356.69 572.25C227.342 569.529 146.48 443.838 171.977 321.875C175.704 305.592 177.259 290.753 178.942 274.691L178.942 274.691L178.942 274.69L178.942 274.69L178.942 274.689L178.942 274.689C179.502 269.341 180.077 263.857 180.751 258.139C181.115 255.464 181.471 252.753 181.831 250.016C185.519 221.994 189.563 191.261 205.147 168.714C288.582 74.7668 461.669 48.0469 556.893 140.99C560.945 143.868 565.714 144.328 563.77 138.234ZM675.675 202.435C677.098 201.988 679.079 204.067 680.529 207.573C680.723 208.025 680.901 208.503 681.076 208.99C724.918 367.108 640.799 499.843 514.252 578.778C365.328 687.854 171.059 608.461 121.178 445.967C110.602 411.258 106.958 371.981 112.981 332.789C113.382 330.57 113.879 328.404 114.509 326.538C115.58 322.966 118.497 318.637 120.648 322.701C122.175 326.335 121.757 331.45 121.342 335.678C112.705 404.597 131.926 472.965 173.599 525.75C248.232 620.66 381.285 653.163 494.105 580.183C602.008 516.827 687.222 415.171 682.888 288.024C682.815 264.093 678.938 237.869 673.83 212.356C673.805 211.943 673.773 211.51 673.739 211.067C673.488 207.741 673.19 203.79 675.603 202.447L675.677 202.425L675.675 202.435ZM642.416 491.167C644.15 494.162 639.196 500.985 636.641 503.934C484.134 699.29 170.762 711.999 98.8609 446.657C97.7098 441.982 97.8998 432.687 102.089 435.293C104.794 437.179 106.73 443.584 108.186 448.405C108.478 449.371 108.751 450.273 109.007 451.063L109.399 452.394C111.738 460.34 113.904 467.695 116.769 475.339C186.328 666.015 432.658 688.333 570.527 555.132C584.041 543.582 597.127 531.925 609.644 518.943C613.767 514.762 617.846 510.519 621.897 506.304L621.904 506.297L621.919 506.282L621.934 506.266L621.944 506.255L621.959 506.24L621.973 506.225C625.234 502.833 628.477 499.46 631.711 496.153C634.066 493.934 636.847 491.387 639.853 490.602C641.006 490.325 641.892 490.495 642.369 491.116L642.413 491.177L642.416 491.167ZM191.615 275.03C191.214 279.163 190.539 288.624 195.238 287.736L195.249 287.729L195.335 287.701C199.365 285.459 200.432 280.242 201.382 275.595C201.544 274.807 201.702 274.035 201.87 273.297C203.27 265.033 204.031 256.725 204.788 248.449C206.507 229.684 208.21 211.08 217.314 193.495C220.429 187.41 224.731 181.629 229.342 176.91C309.37 96.5224 467.272 75.6716 547.474 164.581C549.056 166.347 550.653 168.224 552.255 170.105L552.256 170.107C554.332 172.546 556.416 174.993 558.482 177.22C561.008 180.203 567.125 184.943 569.546 181.222C572.485 176.497 562.86 166.33 556.884 160.017L556.884 160.017L556.883 160.015C555.496 158.55 554.305 157.293 553.514 156.359C468.042 65.0698 305.564 85.8732 221.635 170.583C217.335 175.043 213.551 179.966 210.568 185.403C198.093 208.113 195.329 236.81 192.759 263.495L192.758 263.496L192.758 263.498C192.383 267.394 192.012 271.246 191.615 275.03ZM580.655 385.006C575.62 387.212 577.02 378.65 577.849 375.857C628.389 235.184 485.184 90.7055 344.703 136.901C344.225 136.96 343.749 137.01 343.289 137.035C339.994 137.235 337.739 136.262 337.684 134.611C337.354 132.517 341.704 129.332 344.474 128.38C438.624 95.5948 546.852 150.236 582.61 242.26C597.389 280.988 603.858 326.785 590.712 367.134C590.256 368.29 589.821 369.502 589.379 370.734L589.379 370.737L589.378 370.74C587.44 376.142 585.369 381.919 580.746 384.959L580.655 385.006ZM195.051 308.253C195.496 304.861 194.904 299.762 192.107 299.701L192.119 299.694L192.031 299.692C190.168 299.448 187.718 302.768 186.758 305.45C158.823 402.631 209.021 525.269 311.339 551.861C314.05 552.344 318.171 551.796 318.665 550.241C319.431 548.103 317.028 546.255 313.588 544.368C213.727 509.249 171.024 408.739 195.051 308.253ZM547.095 303.51C555.975 307.84 549.803 337.137 547.785 346.712L547.681 347.209C541.061 374.109 539.293 380.212 514.562 393.08C507.692 396.844 501.887 402.184 496.087 407.52L496.086 407.521C489.111 413.938 482.143 420.349 473.337 424.002C462.449 430.087 374.37 459.59 370.36 443.909C370.02 438.409 381.358 437.63 389.26 437.088L389.261 437.088C391.894 436.907 394.146 436.753 395.456 436.458C431.657 431.293 471.563 418.256 499.464 394.098C502.264 391.752 505.146 389.477 508.23 387.498C509.728 386.516 511.29 385.599 512.874 384.669C516.382 382.61 519.992 380.491 523.22 377.476C525.572 375.306 527.622 372.844 529.376 370.142C537.076 359.839 538.773 341.118 540.133 326.117C541.35 312.695 542.296 302.251 547.032 303.484L547.097 303.5L547.095 303.51ZM156.252 580.054C153.685 577.988 150.923 576.554 149.2 576.739L149.211 576.732L149.119 576.749C146.922 576.856 147.375 580.046 148.464 582.101C150.254 585.751 153.87 589.635 157.001 592.728C212.5 644.141 294.272 677.732 369.977 673.546C376.216 672.092 375.714 667.943 369.48 666.508C291.993 664.501 212.007 634.855 156.252 580.054ZM274.94 164.441C276.309 168.323 270.243 172.752 265.82 175.982L265.819 175.982C264.774 176.745 263.82 177.442 263.078 178.048C232.716 199.278 230.382 229.102 227.863 261.286C227.111 270.884 226.344 280.693 224.811 290.546C223.296 299.568 220.971 308.252 218.628 317L218.617 317.039C217.008 323.102 215.463 329.063 214.4 335.192C213.708 339.011 213.233 342.999 212.759 346.982C212.496 349.183 212.234 351.383 211.936 353.553C211.385 357.412 209.878 365.69 205.617 365.73C198.818 363.452 202.89 343.006 204.673 334.048C204.871 333.056 205.04 332.205 205.164 331.535C206.266 326.442 207.521 321.361 208.776 316.283C210.249 310.324 211.72 304.371 212.94 298.409C216.163 284.942 217.19 271.101 218.202 257.456C220.344 228.571 222.422 200.561 245.131 178.814C250.572 173.532 268.298 158.594 274.891 164.36L274.94 164.441ZM708.315 235.522C707.471 230.514 706.047 222.074 701.434 221.5L701.444 221.502L701.362 221.511C696.225 222.948 698.333 236.057 699.674 244.402L699.674 244.402C700.043 246.696 700.354 248.63 700.441 249.862C712.936 316.545 703.007 369.726 677.462 431.668C676.562 435.263 677.019 438.158 678.626 438.763C680.041 439.38 682.354 438.127 684.434 435.624C717.897 377.92 718.625 301.814 708.544 236.854C708.472 236.448 708.396 236 708.315 235.522ZM312.963 199.555C316.838 199.804 317.534 204.484 316.479 207.469C314.116 215.751 308.038 240.916 300.906 270.447C288.957 319.929 274.046 381.67 268.683 396.794C265.309 399.984 260.315 395.887 261.1 391.523C262.857 383.423 264.616 376.46 266.815 367.755C268.373 361.589 270.152 354.55 272.307 345.614L306.87 205.997C307.448 203.063 309.382 199.398 312.87 199.532L312.959 199.534L312.963 199.555ZM428.235 155.106C478.935 165.092 518.993 195.074 543.588 239.981L543.578 239.979L543.683 240.153C546.837 245.339 549.701 250.604 552.57 255.876C554.095 258.68 555.622 261.486 557.193 264.283C559.598 268.597 565.979 274.38 565.047 264.757C548.331 204.882 490.277 153.349 427.023 145.573C421.316 145.196 414.707 148.463 421.565 152.597C423.324 153.624 425.725 154.445 428.235 155.106ZM330.682 462.797C334.173 460.433 338.655 460.937 343.035 461.429L343.035 461.429L343.036 461.429L343.036 461.429L343.036 461.429L343.037 461.429L343.037 461.429L343.038 461.429L343.038 461.429L343.04 461.429L343.04 461.429C344.414 461.584 345.778 461.737 347.098 461.8C349.923 462.065 352.88 462.274 355.444 462.278C391.097 461.318 467.984 444.462 497.858 424.768C502.039 421.828 505.823 418.109 509.633 414.363L509.634 414.363C511.875 412.16 514.125 409.948 516.471 407.88C518.965 405.498 525.47 401.575 527.593 404.635C528.553 406.018 527.965 408.634 526.161 411.256C492.242 449.964 401.924 471.939 350.768 472.001C344.801 471.797 336.931 471.19 332.883 468.61C329.953 466.819 328.995 464.392 330.615 462.869L330.692 462.799L330.682 462.797ZM561.527 443.241C562.863 440.553 563.175 437.937 562.345 436.547L562.336 436.545L562.287 436.464C559.175 432.892 553.235 439.077 550.659 441.951C519.232 479.993 474.203 497.033 429.296 514.026L427.139 514.843L425.493 515.466C419.558 519.038 420.778 523.631 427.618 523.46C473.288 513.516 535.765 482.706 561.527 443.241ZM519.904 345.837C522.47 345.555 523.365 348.194 522.746 351.69C522.106 355.153 519.818 359.134 517.246 362.394C512.431 368.533 506.201 372.602 499.755 376.811C499.349 377.076 498.941 377.343 498.533 377.61C493.89 380.612 489.017 384.077 484.441 387.331C482.743 388.538 481.085 389.717 479.496 390.832C465.319 401.153 450.299 407.112 433.502 412.76C432.14 413.183 430.309 413.817 428.162 414.56C416.742 418.509 396.39 425.549 390.242 420.498C387.308 416.29 396.859 413.337 400.575 412.392C430.776 405.16 460.822 395.571 484.968 375.978C487.829 373.579 490.902 371.422 493.971 369.268C498.502 366.087 503.025 362.912 506.847 358.971C508.282 357.572 509.594 355.782 510.922 353.968C513.478 350.478 516.098 346.902 519.788 345.868L519.899 345.856L519.904 345.837ZM284.23 237.919C285.228 233.429 286.911 225.856 282.119 224.275L282.105 224.291L282.022 224.271C277.928 224.169 276.971 229.102 276.324 232.44C276.292 232.604 276.261 232.764 276.231 232.919C275.43 237.111 273.913 243.039 271.969 250.094C271.161 253.8 268.883 261.494 266.025 271.145L266.025 271.145C256.821 302.228 241.604 353.615 250.136 357.496C252.554 357.73 253.711 355.727 255.448 352.576C264.282 327.996 269.994 301.695 275.639 275.705L275.639 275.704C278.338 263.275 281.022 250.918 284.025 238.854C284.088 238.561 284.157 238.249 284.23 237.92L284.23 237.919ZM576.138 456.399C578.218 455.967 579.331 457.17 578.777 459.647C577.206 465.712 569.388 473.208 562.848 479.479L562.848 479.479C562.001 480.291 561.175 481.083 560.388 481.848C536.825 505.62 506.024 523.082 474.155 532.624C471.259 533.486 468.021 534.292 465.085 534.354C458.625 534.629 455.995 530.427 462.218 526.808C464.857 525.225 468.486 524.093 471.605 523.12L471.606 523.12L471.616 523.117C509.161 511.606 538.881 487.987 567.18 462.221C569.604 460 573.38 456.939 576.025 456.42L576.138 456.399ZM279.842 195.375C283.129 192.894 289.83 186.068 283.602 184.448L283.472 184.416C277.193 183.726 270.823 188.945 265.776 193.08L265.77 193.084L265.748 193.102L265.744 193.106L265.702 193.14L265.662 193.173L265.231 193.526L265.039 193.683C243.646 210.904 243.132 233.561 242.58 257.904L242.58 257.908L242.58 257.914L242.58 257.921L242.58 257.921L242.58 257.922L242.58 257.922L242.58 257.923L242.58 257.923L242.58 257.93L242.579 257.938L242.579 257.946L242.579 257.949L242.579 257.954C242.522 260.471 242.464 263.006 242.383 265.554C242.023 272.469 240.965 279.172 239.236 285.916C238.828 287.744 238.314 289.673 237.787 291.649C236.339 297.083 234.794 302.88 235.095 307.945C235.83 314.619 241.118 313.58 244.128 308.475C250.416 293.419 251.365 277.533 252.288 262.086C253.798 236.824 255.238 212.736 279.842 195.375ZM298.747 684.449C299.706 686.393 297.932 688.262 294.279 688.749C287.773 689.612 276.369 685.882 268.145 683.192L267.399 682.948L266.964 682.806C230.382 670.465 192.75 652.123 164.523 625.553C160.517 620.497 162.226 616.501 168.648 619.491C202.52 643.897 238.456 667.097 279.483 676.711C280.309 676.921 281.158 677.132 282.016 677.346C285.832 678.295 289.843 679.294 292.978 680.456C295.921 681.56 298.003 682.953 298.712 684.352L298.75 684.44L298.747 684.449ZM411.124 512.515C413.298 510.627 413.31 507.71 410.227 506.611L410.216 506.618L410.09 506.567C407.224 505.434 402.46 506.03 399.009 506.498C362.251 511.683 326.888 503.422 295.683 483.543L295.402 483.365C292.96 481.818 290.167 480.048 287.605 479.196C281.045 476.921 280.038 481.387 283.867 485.926C306.418 506.69 347.364 518.898 377.741 518.171C379.09 518.092 380.688 518.032 382.448 517.966C391.866 517.612 405.911 517.085 411.124 512.515ZM388.774 488.087C390.317 489.27 390.354 490.896 389.048 492.314C386.681 494.962 381.185 495.709 377.387 495.572C350.352 494.693 304.537 480.595 286.2 462.831C284.457 461.158 282.283 458.141 282.945 456.076C284.936 451.994 292.505 456.062 295.901 458.133C319.542 475.413 350.558 483.351 379.308 485.681C382.311 485.95 386.612 486.453 388.679 488.006L388.772 488.074L388.774 488.087ZM229.044 374.973C228.648 372.626 227.609 369.252 226.381 368.237L226.392 368.23L226.311 368.161C224.956 366.938 223.362 367.638 222.248 369.631C220.552 372.536 220.5 377.367 220.91 380.97C224.555 410.441 242.288 443.894 262.047 465.852C264.485 468.635 269.227 473.232 272.756 471.649C275.625 469.903 272.46 464.355 270.418 461.847C268.85 459.838 267.233 457.852 265.616 455.865L265.616 455.864C261.67 451.017 257.716 446.159 254.435 440.932C244.555 425.05 234.216 406.046 230.917 387.65C230.551 385.621 230.266 383.466 229.981 381.312C229.695 379.157 229.41 377.002 229.044 374.973ZM281.38 510.018C280.588 508.036 281.335 506.455 283.519 506.118C287.802 505.813 292.254 508.128 296.404 510.287C297.801 511.014 299.164 511.723 300.474 512.308C304.371 514.259 308.212 515.96 312.24 517.539C330.977 525.058 350.449 529.967 370.618 530.905C373.849 531.241 379.769 532.273 380.12 535.438C379.249 540.739 368.884 540.335 363.986 540.144C363.734 540.134 363.497 540.125 363.276 540.117C338.15 538.642 310.071 529.451 288.649 517.036C285.887 515.444 282.478 512.756 281.422 510.127L281.373 510.006L281.38 510.018ZM459.827 483.085C472.347 482.363 558.055 436.952 552.92 425.765L552.915 425.752L552.861 425.686C547.623 421.356 537.612 429.187 531.494 433.973C530.455 434.786 529.528 435.511 528.756 436.073C524.52 439.404 520.472 442.41 515.982 445.229C506.882 450.928 496.89 456.439 486.966 460.366C482.515 462.206 458.742 472.647 455.036 475.732C449.867 480.072 454.224 483.655 459.827 483.085ZM607.964 259.174C615.554 255.016 619.527 289.017 620.249 295.944C621.293 308.385 623.411 335.654 615.71 341.738C610.608 343.608 610.828 333.044 610.911 329.036L610.911 329.032C610.914 328.89 610.917 328.756 610.919 328.631L610.922 328.439C611.679 308.886 609.045 289.638 605.774 270.332C605.281 266.826 605.447 261.096 607.89 259.235L607.962 259.184L607.964 259.174ZM224.63 453.466C228.209 460.251 261.114 507.531 267.263 498.912L267.251 498.919L267.29 498.84C268.71 496.133 265.468 491.098 263.116 488.563C248.557 473.575 236.904 455.291 226.216 437.098C224.174 433.672 220.583 428.492 216.787 428.085C215.474 428.046 214.719 428.944 214.55 430.264C214.669 436.202 218.859 443.583 224.63 453.466ZM567.028 284.542C572.213 289.22 573.764 310.291 573.677 317.934L573.677 317.983C573.628 325.322 573.419 356.624 563.627 355.903C560.24 354.482 560.562 348.199 560.911 344.714C561.189 342.178 561.557 339.626 561.927 337.062C562.788 331.101 563.657 325.077 563.419 319.045C563.338 314.486 562.653 309.873 561.971 305.276L561.971 305.276L561.971 305.276L561.971 305.275L561.971 305.275L561.971 305.275L561.971 305.274L561.971 305.274C561.373 301.25 560.778 297.239 560.591 293.288C560.238 289.333 562.341 281.597 566.927 284.468L567.028 284.542ZM566.449 373.351C566.706 371.274 565.902 368.826 563.778 368.281L563.768 368.278L563.666 368.253C559.313 367.897 556.319 372.815 553.726 377.074C552.776 378.633 551.881 380.104 550.992 381.195C548.369 384.975 545.35 388.164 541.801 390.867C541.162 391.392 540.471 391.919 539.766 392.459C537.009 394.564 534.015 396.852 532.908 399.931C531.953 402.99 535.353 403.88 537.758 403.41C548.331 401.746 565.492 383.354 566.449 373.351ZM322.983 139.456C326.257 139.94 327.955 143.162 325.452 145.66C323.371 147.878 318.736 150.438 314.467 152.795L314.465 152.796C312.494 153.885 310.6 154.931 309.072 155.88C308.51 156.198 307.924 156.538 307.32 156.888C301.073 160.51 293.031 165.173 292.104 157.036C292.592 152.869 296.48 150.621 300.367 148.373L300.779 148.135C304.244 146.25 308.518 144.132 312.23 142.407C316.417 140.474 320.148 138.951 322.848 139.442L322.988 139.476L322.983 139.456ZM600.408 197.352C598.347 192.272 595.762 185.903 591.371 186.256L591.38 186.258L591.275 186.282C585.849 188.708 589.722 198.894 592.267 205.587L592.44 206.042C592.498 206.197 592.556 206.35 592.613 206.501C593.03 207.416 593.424 208.349 593.814 209.273L593.815 209.275C595.799 213.974 597.692 218.455 602.068 219.357C609.225 218.984 605.341 209.452 602.92 203.514C602.458 202.379 602.049 201.375 601.781 200.592C601.341 199.65 600.889 198.536 600.408 197.352ZM606.367 368.585C611.618 369.254 608.633 378.044 607.174 382.182C606.778 383.129 606.391 384.161 605.991 385.228C604.319 389.69 602.416 394.765 598.633 396.798C597.136 397.385 595.838 396.412 595.301 395.036C593.85 390.996 595.573 386.101 597.221 381.419C597.295 381.207 597.37 380.996 597.444 380.785L597.533 380.53L597.627 380.262C597.889 379.647 598.145 379.023 598.4 378.399L598.402 378.394L598.405 378.388C600.229 373.934 602.048 369.491 606.258 368.588L606.367 368.585ZM217.506 415.297C216.042 409.858 211.855 394.312 207.177 393.019L207.165 393.026L207.072 393.003C203.681 392.952 203.583 398.689 204.279 403.409C205.209 409.016 207.274 416.018 210.467 419.897C215.134 425.353 219.427 422.795 217.608 415.676L217.506 415.297ZM412.488 540.795C415.134 538.156 420.455 537.342 424.331 537.345C426.756 537.432 429.165 537.624 430.433 539.437C431.249 540.843 430.298 542.452 429.232 543.53C425.643 547.268 415.622 549.532 412.297 546.865C410.282 545.399 410.631 542.556 412.367 540.923L412.485 540.805L412.488 540.795ZM372.642 552.87C368.183 550.996 359.954 549.65 355.884 552.302L355.882 552.311L355.77 552.402C354.016 553.832 354.671 556.204 356.284 557.462C359.698 560.527 372.175 560.695 375.018 556.624C375.85 554.897 374.221 553.665 372.642 552.87ZM584.046 162.935C588.685 163.324 591.953 171.601 589.356 175.397C588.534 176.565 587.081 176.975 585.759 176.499C581.478 175.262 577.309 164.128 583.897 162.938L584.046 162.935ZM570.046 400.327C567.663 403.535 571.63 408.512 575.274 407.303L575.281 407.315L575.443 407.256C578.16 406.163 578.22 402.015 576.379 400.05C574.76 398.179 571.416 398.377 570.046 400.327ZM566.713 420.011C565.404 424.62 558.256 422.968 559.16 418.24C560.194 413.267 567.776 414.918 566.759 419.825L566.715 420.002L566.713 420.011ZM395.241 489.653C394.336 494.382 401.484 496.033 402.793 491.424L402.795 491.415L402.839 491.238C403.856 486.331 396.274 484.681 395.241 489.653Z" fill="white"/>
<path fill-rule="evenodd" clip-rule="evenodd" d="M458.377 200.765C459.085 198.062 461.496 196.106 464.287 196.236C500.518 197.928 528.52 228.667 526.829 264.897C525.137 301.128 494.392 329.13 458.162 327.438C451.049 327.106 444.255 325.654 437.941 323.259C431.567 320.842 428.785 313.717 430.512 307.123L458.377 200.765ZM430.141 194.642C431.799 194.719 432.966 196.304 432.547 197.911L374.989 418.675C374.877 419.106 374.478 419.4 374.033 419.378C368.48 419.114 333.814 417.459 306.416 416.197C296.711 415.75 289.86 406.508 292.255 397.093L328.25 255.631C343.892 199.741 383.959 192.485 430.141 194.642Z" fill="white"/>
</g>
</svg>
